<svg width="48" height="54" viewBox="0 0 48 54" fill="none" xmlns="http://www.w3.org/2000/svg">
<path d="M16.6454 43C15.6214 43 14.8374 42.728 14.2934 42.184C13.7494 41.64 13.4774 40.888 13.4774 39.928C13.4774 38.936 13.7494 38.184 14.2934 37.672C14.8374 37.16 15.6214 36.904 16.6454 36.904H21.4934V15.256H24.9974L17.9894 19.528C17.2534 19.976 16.5654 20.152 15.9254 20.056C15.3174 19.96 14.7894 19.688 14.3414 19.24C13.8934 18.792 13.5894 18.264 13.4294 17.656C13.3014 17.016 13.3654 16.392 13.6214 15.784C13.8774 15.144 14.3574 14.6 15.0614 14.152L21.7334 10.12C22.4054 9.704 23.0774 9.368 23.7494 9.112C24.4534 8.856 25.1414 8.728 25.8134 8.728C26.7734 8.728 27.5254 8.984 28.0694 9.496C28.6454 9.976 28.9334 10.728 28.9334 11.752V36.904H33.3014C34.2934 36.904 35.0614 37.16 35.6054 37.672C36.1494 38.184 36.4214 38.936 36.4214 39.928C36.4214 40.92 36.1494 41.688 35.6054 42.232C35.0614 42.744 34.2934 43 33.3014 43H16.6454Z" fill="#EBEBEB"/>
</svg>
