<svg width="48" height="54" viewBox="0 0 48 54" fill="none" xmlns="http://www.w3.org/2000/svg">
<mask id="path-1-outside-1_23_4" maskUnits="userSpaceOnUse" x="6" y="4" width="36" height="45" fill="black">
<rect fill="white" x="6" y="4" width="36" height="45"/>
<path d="M23.5574 43.528C21.9254 43.528 20.2454 43.32 18.5174 42.904C16.7894 42.488 15.2054 41.864 13.7654 41.032C13.0294 40.616 12.5174 40.104 12.2294 39.496C11.9734 38.888 11.8934 38.264 11.9894 37.624C12.1174 36.984 12.3734 36.44 12.7574 35.992C13.1734 35.512 13.6854 35.208 14.2934 35.08C14.9334 34.952 15.6374 35.096 16.4054 35.512C17.5254 36.088 18.6614 36.536 19.8134 36.856C20.9974 37.176 22.1974 37.336 23.4134 37.336C24.6294 37.336 25.6694 37.128 26.5334 36.712C27.3974 36.296 28.0534 35.72 28.5014 34.984C28.9494 34.248 29.1734 33.384 29.1734 32.392C29.1734 30.856 28.6774 29.624 27.6854 28.696C26.7254 27.768 25.4134 27.304 23.7494 27.304C22.9174 27.304 22.0694 27.448 21.2054 27.736C20.3734 27.992 19.5094 28.456 18.6134 29.128C18.2934 29.384 17.8774 29.624 17.3654 29.848C16.8534 30.072 16.3094 30.184 15.7334 30.184C14.7414 30.184 14.0054 29.96 13.5254 29.512C13.0454 29.032 12.8054 28.344 12.8054 27.448V12.376C12.8054 11.32 13.0774 10.52 13.6214 9.976C14.1974 9.432 14.9974 9.16 16.0214 9.16H31.4294C32.4854 9.16 33.2854 9.432 33.8294 9.976C34.3734 10.488 34.6454 11.24 34.6454 12.232C34.6454 13.192 34.3734 13.944 33.8294 14.488C33.2854 15 32.4854 15.256 31.4294 15.256H19.9574V24.424H18.1334C18.9334 23.432 19.9894 22.664 21.3014 22.12C22.6134 21.576 24.0534 21.304 25.6214 21.304C27.7654 21.304 29.6374 21.768 31.2374 22.696C32.8374 23.592 34.0854 24.856 34.9814 26.488C35.8774 28.12 36.3254 30.008 36.3254 32.152C36.3254 34.392 35.8134 36.376 34.7894 38.104C33.7654 39.8 32.2934 41.128 30.3734 42.088C28.4534 43.048 26.1814 43.528 23.5574 43.528Z"/>
</mask>
<path d="M23.5574 43.528C21.9254 43.528 20.2454 43.32 18.5174 42.904C16.7894 42.488 15.2054 41.864 13.7654 41.032C13.0294 40.616 12.5174 40.104 12.2294 39.496C11.9734 38.888 11.8934 38.264 11.9894 37.624C12.1174 36.984 12.3734 36.44 12.7574 35.992C13.1734 35.512 13.6854 35.208 14.2934 35.08C14.9334 34.952 15.6374 35.096 16.4054 35.512C17.5254 36.088 18.6614 36.536 19.8134 36.856C20.9974 37.176 22.1974 37.336 23.4134 37.336C24.6294 37.336 25.6694 37.128 26.5334 36.712C27.3974 36.296 28.0534 35.72 28.5014 34.984C28.9494 34.248 29.1734 33.384 29.1734 32.392C29.1734 30.856 28.6774 29.624 27.6854 28.696C26.7254 27.768 25.4134 27.304 23.7494 27.304C22.9174 27.304 22.0694 27.448 21.2054 27.736C20.3734 27.992 19.5094 28.456 18.6134 29.128C18.2934 29.384 17.8774 29.624 17.3654 29.848C16.8534 30.072 16.3094 30.184 15.7334 30.184C14.7414 30.184 14.0054 29.96 13.5254 29.512C13.0454 29.032 12.8054 28.344 12.8054 27.448V12.376C12.8054 11.32 13.0774 10.52 13.6214 9.976C14.1974 9.432 14.9974 9.16 16.0214 9.16H31.4294C32.4854 9.16 33.2854 9.432 33.8294 9.976C34.3734 10.488 34.6454 11.24 34.6454 12.232C34.6454 13.192 34.3734 13.944 33.8294 14.488C33.2854 15 32.4854 15.256 31.4294 15.256H19.9574V24.424H18.1334C18.9334 23.432 19.9894 22.664 21.3014 22.12C22.6134 21.576 24.0534 21.304 25.6214 21.304C27.7654 21.304 29.6374 21.768 31.2374 22.696C32.8374 23.592 34.0854 24.856 34.9814 26.488C35.8774 28.12 36.3254 30.008 36.3254 32.152C36.3254 34.392 35.8134 36.376 34.7894 38.104C33.7654 39.8 32.2934 41.128 30.3734 42.088C28.4534 43.048 26.1814 43.528 23.5574 43.528Z" fill="white"/>
<path d="M18.5174 42.904L19.6876 38.0429L19.6876 38.0429L18.5174 42.904ZM13.7654 41.032L16.2668 36.7027L16.2463 36.6908L16.2257 36.6792L13.7654 41.032ZM12.2294 39.496L7.6212 41.4363L7.66375 41.5373L7.71069 41.6364L12.2294 39.496ZM11.9894 37.624L7.08647 36.6434L7.06269 36.7624L7.04469 36.8823L11.9894 37.624ZM12.7574 35.992L8.97893 32.7173L8.96998 32.7277L8.96109 32.738L12.7574 35.992ZM14.2934 35.08L13.3128 30.1771L13.288 30.182L13.2633 30.1873L14.2934 35.08ZM16.4054 35.512L14.024 39.9085L14.071 39.934L14.1186 39.9584L16.4054 35.512ZM19.8134 36.856L18.4752 41.6736L18.492 41.6783L18.5088 41.6828L19.8134 36.856ZM26.5334 36.712L24.3643 32.207L24.3643 32.207L26.5334 36.712ZM27.6854 28.696L24.2103 32.2909L24.2397 32.3194L24.2696 32.3474L27.6854 28.696ZM21.2054 27.736L22.6758 32.5149L22.7314 32.4978L22.7865 32.4794L21.2054 27.736ZM18.6134 29.128L15.6134 25.128L15.5509 25.1749L15.4899 25.2237L18.6134 29.128ZM13.5254 29.512L9.98984 33.0475L10.0508 33.1085L10.1138 33.1673L13.5254 29.512ZM13.6214 9.976L10.1883 6.34094L10.1363 6.38997L10.0858 6.44047L13.6214 9.976ZM33.8294 9.976L30.2938 13.5115L30.3474 13.5651L30.4026 13.617L33.8294 9.976ZM33.8294 14.488L37.2562 18.129L37.3114 18.0771L37.3649 18.0235L33.8294 14.488ZM19.9574 15.256V10.256H14.9574V15.256H19.9574ZM19.9574 24.424V29.424H24.9574V24.424H19.9574ZM18.1334 24.424L14.2413 21.2852L7.67779 29.424H18.1334V24.424ZM21.3014 22.12L19.3863 17.5013L19.3863 17.5013L21.3014 22.12ZM31.2374 22.696L28.7288 27.0212L28.7614 27.0401L28.7944 27.0585L31.2374 22.696ZM34.7894 38.104L39.0697 40.6883L39.0803 40.6707L39.0908 40.653L34.7894 38.104ZM30.3734 42.088L28.1373 37.6159L30.3734 42.088ZM23.5574 38.528C22.3528 38.528 21.0661 38.3747 19.6876 38.0429L17.3471 47.7651C19.4246 48.2653 21.4979 48.528 23.5574 48.528V38.528ZM19.6876 38.0429C18.3946 37.7316 17.2633 37.2785 16.2668 36.7027L11.264 45.3613C13.1474 46.4495 15.1842 47.2444 17.3471 47.7651L19.6876 38.0429ZM16.2257 36.6792C16.1873 36.6575 16.2529 36.6885 16.3649 36.8005C16.4832 36.9187 16.6286 37.1034 16.7481 37.3556L7.71069 41.6364C8.54195 43.3913 9.90303 44.5923 11.3051 45.3848L16.2257 36.6792ZM16.8376 37.5557C16.8766 37.6483 16.9165 37.7781 16.9368 37.9362C16.9571 38.0949 16.9525 38.2426 16.9341 38.3657L7.04469 36.8823C6.80975 38.4486 7.0162 39.9994 7.6212 41.4363L16.8376 37.5557ZM16.8923 38.6046C16.8837 38.6477 16.8597 38.7412 16.8015 38.865C16.7421 38.9912 16.6592 39.1229 16.5537 39.246L8.96109 32.738C7.96198 33.9037 7.36425 35.2545 7.08647 36.6434L16.8923 38.6046ZM16.5358 39.2667C16.4163 39.4046 16.2408 39.5639 16.0061 39.7033C15.7703 39.8433 15.5325 39.9287 15.3234 39.9727L13.2633 30.1873C11.5617 30.5455 10.0927 31.4323 8.97893 32.7173L16.5358 39.2667ZM15.274 39.9829C14.4317 40.1513 13.934 39.8597 14.024 39.9085L18.7868 31.1155C17.3408 30.3323 15.435 29.7527 13.3128 30.1771L15.274 39.9829ZM14.1186 39.9584C15.5253 40.6819 16.9782 41.2578 18.4752 41.6736L21.1516 32.0384C20.3445 31.8142 19.5255 31.4941 18.6921 31.0656L14.1186 39.9584ZM18.5088 41.6828C20.1144 42.1168 21.753 42.336 23.4134 42.336V32.336C22.6418 32.336 21.8803 32.2352 21.1179 32.0292L18.5088 41.6828ZM23.4134 42.336C25.1851 42.336 27.0055 42.0341 28.7025 41.217L24.3643 32.207C24.3333 32.2219 24.0736 32.336 23.4134 32.336V42.336ZM28.7025 41.217C30.3347 40.4311 31.7667 39.2358 32.7724 37.5837L24.2304 32.3843C24.2734 32.3137 24.3267 32.2527 24.3744 32.2108C24.419 32.1716 24.4273 32.1767 24.3643 32.207L28.7025 41.217ZM32.7724 37.5837C33.7657 35.9519 34.1734 34.1597 34.1734 32.392H24.1734C24.1734 32.5111 24.1601 32.5496 24.1654 32.5292C24.1679 32.5195 24.1739 32.4994 24.1855 32.4718C24.1971 32.4441 24.2122 32.4142 24.2304 32.3843L32.7724 37.5837ZM34.1734 32.392C34.1734 29.6714 33.2407 27.0461 31.1012 25.0446L24.2696 32.3474C24.2645 32.3426 24.244 32.322 24.2188 32.2855C24.1935 32.2488 24.1748 32.2122 24.1632 32.1833C24.1519 32.1554 24.1537 32.1506 24.1588 32.1789C24.1641 32.2085 24.1734 32.2768 24.1734 32.392H34.1734ZM31.1605 25.1011C29.0517 23.0626 26.3743 22.304 23.7494 22.304V32.304C24.1215 32.304 24.2869 32.3562 24.3143 32.3659C24.327 32.3704 24.3146 32.3672 24.2873 32.3504C24.2594 32.3333 24.2321 32.312 24.2103 32.2909L31.1605 25.1011ZM23.7494 22.304C22.3316 22.304 20.95 22.5507 19.6242 22.9926L22.7865 32.4794C23.1887 32.3453 23.5032 32.304 23.7494 32.304V22.304ZM19.7349 22.9571C18.2196 23.4234 16.8449 24.2044 15.6134 25.128L21.6134 33.128C22.1738 32.7076 22.5271 32.5606 22.6758 32.5149L19.7349 22.9571ZM15.4899 25.2237C15.5572 25.1698 15.5882 25.1544 15.5628 25.1691C15.5382 25.1832 15.4746 25.2176 15.3613 25.2672L19.3695 34.4288C20.1479 34.0882 20.9766 33.6406 21.7368 33.0323L15.4899 25.2237ZM15.3613 25.2672C15.4233 25.2401 15.4929 25.2176 15.5651 25.2027C15.6369 25.1879 15.6952 25.184 15.7334 25.184V35.184C16.9775 35.184 18.2059 34.9378 19.3695 34.4288L15.3613 25.2672ZM15.7334 25.184C15.5959 25.184 15.6756 25.1664 15.8932 25.2326C16.1299 25.3047 16.5315 25.4783 16.937 25.8567L10.1138 33.1673C11.8959 34.8306 14.1059 35.184 15.7334 35.184V25.184ZM17.0609 25.9765C17.3917 26.3072 17.597 26.6756 17.7064 26.9891C17.8079 27.2802 17.8054 27.4593 17.8054 27.448H7.80538C7.80538 29.2302 8.30122 31.3589 9.98984 33.0475L17.0609 25.9765ZM17.8054 27.448V12.376H7.80538V27.448H17.8054ZM17.8054 12.376C17.8054 12.2646 17.8212 12.3643 17.7432 12.5935C17.6572 12.8465 17.4782 13.1902 17.1569 13.5115L10.0858 6.44047C8.29892 8.22739 7.80538 10.4991 7.80538 12.376H17.8054ZM17.0545 13.6111C16.7863 13.8643 16.4966 14.0184 16.2629 14.0979C16.0481 14.1709 15.9447 14.16 16.0214 14.16V4.16C14.1073 4.16 11.9398 4.68672 10.1883 6.34094L17.0545 13.6111ZM16.0214 14.16H31.4294V4.16H16.0214V14.16ZM31.4294 14.16C31.5408 14.16 31.4411 14.1758 31.2119 14.0979C30.9589 14.0119 30.6151 13.8328 30.2938 13.5115L37.3649 6.44046C35.578 4.65354 33.3063 4.16 31.4294 4.16V14.16ZM30.4026 13.617C30.0633 13.2977 29.8511 12.9333 29.7395 12.6247C29.6373 12.342 29.6454 12.1817 29.6454 12.232H39.6454C39.6454 10.3336 39.1028 8.07296 37.2562 6.335L30.4026 13.617ZM29.6454 12.232C29.6454 12.2451 29.6432 12.0816 29.7395 11.8153C29.8429 11.5295 30.0266 11.2197 30.2938 10.9525L37.3649 18.0235C39.0666 16.3219 39.6454 14.1707 39.6454 12.232H29.6454ZM30.4026 10.847C31.1098 10.1813 31.7395 10.256 31.4294 10.256V20.256C33.2312 20.256 35.4609 19.8187 37.2562 18.129L30.4026 10.847ZM31.4294 10.256H19.9574V20.256H31.4294V10.256ZM14.9574 15.256V24.424H24.9574V15.256H14.9574ZM19.9574 19.424H18.1334V29.424H19.9574V19.424ZM22.0254 27.5628C22.2426 27.2935 22.5868 26.9998 23.2165 26.7387L19.3863 17.5013C17.392 18.3282 15.6242 19.5705 14.2413 21.2852L22.0254 27.5628ZM23.2164 26.7387C23.8611 26.4714 24.6421 26.304 25.6214 26.304V16.304C23.4647 16.304 21.3657 16.6806 19.3863 17.5013L23.2164 26.7387ZM25.6214 26.304C27.0262 26.304 28.0049 26.6013 28.7288 27.0212L33.746 18.3708C31.2698 16.9347 28.5045 16.304 25.6214 16.304V26.304ZM28.7944 27.0585C29.5642 27.4897 30.1459 28.0699 30.5985 28.8943L39.3643 24.0817C38.0249 21.6421 36.1105 19.6943 33.6804 18.3335L28.7944 27.0585ZM30.5985 28.8943C31.0319 29.6837 31.3254 30.7205 31.3254 32.152H41.3254C41.3254 29.2955 40.7229 26.5563 39.3643 24.0817L30.5985 28.8943ZM31.3254 32.152C31.3254 33.601 31.0035 34.6849 30.4879 35.555L39.0908 40.653C40.6233 38.0671 41.3254 35.183 41.3254 32.152H31.3254ZM30.5091 35.5197C30.0149 36.338 29.2845 37.0423 28.1373 37.6159L32.6094 46.5601C35.3022 45.2137 37.5158 43.262 39.0697 40.6883L30.5091 35.5197ZM28.1373 37.6159C27.049 38.16 25.575 38.528 23.5574 38.528V48.528C26.7877 48.528 29.8577 47.936 32.6094 46.5601L28.1373 37.6159Z" fill="#FFA500" mask="url(#path-1-outside-1_23_4)"/>
</svg>
